<svg width="1631" height="225" viewBox="0 0 1631 225" xmlns="http://www.w3.org/2000/svg">
  <defs>
    <filter id="blur">
      <feGaussianBlur in="SourceGraphic" stdDeviation="3" />
    </filter>
    <linearGradient id="mask-gradient" x1="0%" y1="0%" x2="0%" y2="100%">
      <stop offset="0%" style="stop-color:white;stop-opacity:1" />
      <stop offset="25%" style="stop-color:white;stop-opacity:0" />
    </linearGradient>
    <mask id="fade-mask">
      <rect width="100%" height="100%" fill="url(#mask-gradient)" />
    </mask>
  </defs>

  <g mask="url(#fade-mask)">
    <path
      d="M0.600002 222V2.99999H134.4V16.8H15.3V99H128.4V112.5H15.3V208.2H134.4V222H0.600002ZM176.993 222L255.593 111.6L178.493 2.99999H195.893L265.793 101.4H266.393L335.993 2.99999H353.393L276.293 111.6L354.893 222H337.493L266.393 121.5H265.793L194.393 222H176.993ZM464.06 222V16.8H381.26V2.99999H562.16V16.8H479.36V222H464.06ZM602.358 222V2.99999H736.158V16.8H617.058V99H730.158V112.5H617.058V208.2H736.158V222H602.358ZM790.151 222V2.99999H808.151L940.451 200.1H941.051V2.99999H956.051V222H938.051L805.451 24.9H804.851V222H790.151ZM1078.4 225C1065.8 225 1053.1 223.7 1040.3 221.1C1027.5 218.3 1016.6 214.8 1007.6 210.6L1011.8 197.1C1017.8 199.9 1024.5 202.4 1031.9 204.6C1039.5 206.6 1047.3 208.2 1055.3 209.4C1063.5 210.6 1071.4 211.2 1079 211.2C1098.8 211.2 1114.1 207.2 1124.9 199.2C1135.7 191.2 1141.1 180 1141.1 165.6C1141.1 157.4 1139.4 150.6 1136 145.2C1132.6 139.8 1127.9 135.3 1121.9 131.7C1116.1 128.1 1109.3 125.1 1101.5 122.7C1093.9 120.1 1085.7 117.6 1076.9 115.2C1068.1 112.8 1059.5 110.2 1051.1 107.4C1042.9 104.4 1035.6 100.7 1029.2 96.3C1022.8 91.9 1017.7 86.4 1013.9 79.8C1010.1 73.2 1008.2 65.1 1008.2 55.5C1008.2 37.9 1014.9 24.3 1028.3 14.7C1041.7 4.89999 1060.2 -2.86102e-06 1083.8 -2.86102e-06C1096 -2.86102e-06 1108.2 1.29999 1120.4 3.89998C1132.8 6.29999 1143.2 9.49999 1151.6 13.5L1146.8 27C1139 23 1129.3 19.8 1117.7 17.4C1106.3 15 1095 13.8 1083.8 13.8C1064.6 13.8 1049.8 17.5 1039.4 24.9C1029 32.1 1023.8 42.3 1023.8 55.5C1023.8 63.1 1025.3 69.5 1028.3 74.7C1031.5 79.7 1035.9 83.9 1041.5 87.3C1047.1 90.7 1053.6 93.6 1061 96C1068.4 98.4 1076.3 100.7 1084.7 102.9C1094.1 105.5 1103 108.4 1111.4 111.6C1120 114.6 1127.7 118.4 1134.5 123C1141.3 127.4 1146.6 133.1 1150.4 140.1C1154.4 146.9 1156.4 155.4 1156.4 165.6C1156.4 184.4 1149.5 199 1135.7 209.4C1122.1 219.8 1103 225 1078.4 225ZM1210.92 222V2.99999H1226.22V222H1210.92ZM1290.54 222V2.99999H1350.84C1377.84 2.99999 1398.04 7.39999 1411.44 16.2C1424.84 24.8 1431.54 38 1431.54 55.8C1431.54 68.8 1427.94 79.4 1420.74 87.6C1413.54 95.8 1402.94 101.5 1388.94 104.7V105.3C1406.94 108.3 1420.34 114.5 1429.14 123.9C1437.94 133.1 1442.34 145.6 1442.34 161.4C1442.34 182 1434.84 197.3 1419.84 207.3C1405.04 217.1 1382.24 222 1351.44 222H1290.54ZM1351.44 208.2C1377.64 208.2 1396.84 204.4 1409.04 196.8C1421.24 189 1427.34 176.9 1427.34 160.5C1427.34 143.9 1421.24 131.8 1409.04 124.2C1396.84 116.4 1377.64 112.5 1351.44 112.5H1298.04V99H1351.44C1373.64 99 1390.04 95.6 1400.64 88.8C1411.24 82 1416.54 71.6 1416.54 57.6C1416.54 43.6 1411.24 33.3 1400.64 26.7C1390.04 20.1 1373.64 16.8 1351.44 16.8H1305.24V208.2H1351.44ZM1485.66 222V2.99999H1500.66V208.2H1630.56V222H1485.66Z"
      fill="white" filter="url(#blur)" />
  </g>

  <path
    d="M0.600002 222V2.99999H134.4V16.8H15.3V99H128.4V112.5H15.3V208.2H134.4V222H0.600002ZM176.993 222L255.593 111.6L178.493 2.99999H195.893L265.793 101.4H266.393L335.993 2.99999H353.393L276.293 111.6L354.893 222H337.493L266.393 121.5H265.793L194.393 222H176.993ZM464.06 222V16.8H381.26V2.99999H562.16V16.8H479.36V222H464.06ZM602.358 222V2.99999H736.158V16.8H617.058V99H730.158V112.5H617.058V208.2H736.158V222H602.358ZM790.151 222V2.99999H808.151L940.451 200.1H941.051V2.99999H956.051V222H938.051L805.451 24.9H804.851V222H790.151ZM1078.4 225C1065.8 225 1053.1 223.7 1040.3 221.1C1027.5 218.3 1016.6 214.8 1007.6 210.6L1011.8 197.1C1017.8 199.9 1024.5 202.4 1031.9 204.6C1039.5 206.6 1047.3 208.2 1055.3 209.4C1063.5 210.6 1071.4 211.2 1079 211.2C1098.8 211.2 1114.1 207.2 1124.9 199.2C1135.7 191.2 1141.1 180 1141.1 165.6C1141.1 157.4 1139.4 150.6 1136 145.2C1132.6 139.8 1127.9 135.3 1121.9 131.7C1116.1 128.1 1109.3 125.1 1101.5 122.7C1093.9 120.1 1085.7 117.6 1076.9 115.2C1068.1 112.8 1059.5 110.2 1051.1 107.4C1042.9 104.4 1035.6 100.7 1029.2 96.3C1022.8 91.9 1017.7 86.4 1013.9 79.8C1010.1 73.2 1008.2 65.1 1008.2 55.5C1008.2 37.9 1014.9 24.3 1028.3 14.7C1041.7 4.89999 1060.2 -2.86102e-06 1083.8 -2.86102e-06C1096 -2.86102e-06 1108.2 1.29999 1120.4 3.89998C1132.8 6.29999 1143.2 9.49999 1151.6 13.5L1146.8 27C1139 23 1129.3 19.8 1117.7 17.4C1106.3 15 1095 13.8 1083.8 13.8C1064.6 13.8 1049.8 17.5 1039.4 24.9C1029 32.1 1023.8 42.3 1023.8 55.5C1023.8 63.1 1025.3 69.5 1028.3 74.7C1031.5 79.7 1035.9 83.9 1041.5 87.3C1047.1 90.7 1053.6 93.6 1061 96C1068.4 98.4 1076.3 100.7 1084.7 102.9C1094.1 105.5 1103 108.4 1111.4 111.6C1120 114.6 1127.7 118.4 1134.5 123C1141.3 127.4 1146.6 133.1 1150.4 140.1C1154.4 146.9 1156.4 155.4 1156.4 165.6C1156.4 184.4 1149.5 199 1135.7 209.4C1122.1 219.8 1103 225 1078.4 225ZM1210.92 222V2.99999H1226.22V222H1210.92ZM1290.54 222V2.99999H1350.84C1377.84 2.99999 1398.04 7.39999 1411.44 16.2C1424.84 24.8 1431.54 38 1431.54 55.8C1431.54 68.8 1427.94 79.4 1420.74 87.6C1413.54 95.8 1402.94 101.5 1388.94 104.7V105.3C1406.94 108.3 1420.34 114.5 1429.14 123.9C1437.94 133.1 1442.34 145.6 1442.34 161.4C1442.34 182 1434.84 197.3 1419.84 207.3C1405.04 217.1 1382.24 222 1351.44 222H1290.54ZM1351.44 208.2C1377.64 208.2 1396.84 204.4 1409.04 196.8C1421.24 189 1427.34 176.9 1427.34 160.5C1427.34 143.9 1421.24 131.8 1409.04 124.2C1396.84 116.4 1377.64 112.5 1351.44 112.5H1298.04V99H1351.44C1373.64 99 1390.04 95.6 1400.64 88.8C1411.24 82 1416.54 71.6 1416.54 57.6C1416.54 43.6 1411.24 33.3 1400.64 26.7C1390.04 20.1 1373.64 16.8 1351.44 16.8H1305.24V208.2H1351.44ZM1485.66 222V2.99999H1500.66V208.2H1630.56V222H1485.66Z"
    fill="white" />
</svg>